<?xml version="1.0" encoding="UTF-8" standalone="no"?>
<svg
   xmlns:dc="http://purl.org/dc/elements/1.1/"
   xmlns:cc="http://creativecommons.org/ns#"
   xmlns:rdf="http://www.w3.org/1999/02/22-rdf-syntax-ns#"
   xmlns:svg="http://www.w3.org/2000/svg"
   xmlns="http://www.w3.org/2000/svg"
   xmlns:sodipodi="http://sodipodi.sourceforge.net/DTD/sodipodi-0.dtd"
   xmlns:inkscape="http://www.inkscape.org/namespaces/inkscape"
   width="74mm"
   height="87mm"
   viewBox="0 0 74 87"
   version="1.1"
   id="svg1408"
   sodipodi:docname="icon.svg"
   inkscape:version="1.0.1 (1.0.1+r73)"
   inkscape:export-filename="/home/vvo/Desktop/4.png"
   inkscape:export-xdpi="300"
   inkscape:export-ydpi="300">
  <defs
     id="defs1402">
    <inkscape:perspective
       sodipodi:type="inkscape:persp3d"
       inkscape:vp_x="0 : -61.500002 : 1"
       inkscape:vp_y="0 : 999.99994 : 0"
       inkscape:vp_z="210.00001 : -61.500002 : 1"
       inkscape:persp3d-origin="105.00001 : -111 : 1"
       id="perspective2017" />
  </defs>
  <sodipodi:namedview
     id="base"
     pagecolor="#ffffff"
     bordercolor="#666666"
     borderopacity="1.0"
     inkscape:pageopacity="0"
     inkscape:pageshadow="2"
     inkscape:zoom="0.83728256"
     inkscape:cx="361.40757"
     inkscape:cy="355.40742"
     inkscape:document-units="mm"
     inkscape:current-layer="layer1"
     inkscape:document-rotation="0"
     showgrid="true"
     inkscape:pagecheckerboard="true"
     objecttolerance="20"
     guidetolerance="10"
     gridtolerance="10"
     inkscape:window-width="1920"
     inkscape:window-height="970"
     inkscape:window-x="1920"
     inkscape:window-y="27"
     inkscape:window-maximized="1"
     showguides="true"
     inkscape:guide-bbox="true" />
  <metadata
     id="metadata1405">
    <rdf:RDF>
      <cc:Work
         rdf:about="">
        <dc:format>image/svg+xml</dc:format>
        <dc:type
           rdf:resource="http://purl.org/dc/dcmitype/StillImage" />
        <dc:title />
      </cc:Work>
    </rdf:RDF>
  </metadata>
  <g
     inkscape:label="Layer 1"
     inkscape:groupmode="layer"
     id="layer1">
    <g
       id="g3537"
       transform="translate(-44.33994,-574.37953)"
       style="fill:#f82249;fill-opacity:1"
       inkscape:export-xdpi="50"
       inkscape:export-ydpi="50">
      <g
         id="g1665"
         transform="matrix(0.02960532,0,0,0.02960532,79.92422,573.19828)"
         style="fill:#f82249;fill-opacity:1;stroke:none;stroke-width:3.37777;stroke-miterlimit:4;stroke-dasharray:none;stroke-opacity:1">
        <polygon
           id="polygon1623"
           fill="#1072ba"
           points="605.1,2148.1 85.6,2152 89.5,2099.1 573.7,2095.1 597.3,2099.1 "
           style="fill:#f82249;fill-opacity:1;stroke:none;stroke-width:3.37777;stroke-miterlimit:4;stroke-dasharray:none;stroke-opacity:1" />
        <path
           id="path1625"
           fill="#1072ba"
           d="m 126.7,2083.4 443.1,-5.9 -15,-214.3 c 0,0 -6.5,-5.8 -32,15.8 -25.5,21.5 -3,-15.7 -3,-15.7 0,0 -10.1,-45.2 -11.5,-48.4 -1.3,-3.3 -9.1,2.5 -9.1,5.9 0,3.2 0.6,-17 -1.3,-19 -2,-1.9 -8.5,-16.3 -17,5.2 -8.6,21.5 -24.9,213.7 -24.9,213.7 0,0 0.7,39.9 -2.5,42.5 -3.3,2.6 -39.3,-30.7 -39.3,-36.6 0,-5.9 43.1,-202.6 40.6,-209.7 -2.6,-7.2 -51.7,39.9 -65.4,37.9 -13.7,-1.9 3.2,152.9 0.6,154.3 -2.5,1.2 -27.5,24.1 -33.9,27.5 -6.6,3.2 13,-143.8 13,-154.9 0,-11.1 -42.5,54.2 -45.7,74.5 -3.2,20.3 -8.5,5.4 -14.3,-2.6 -3.1,-4.1 11.1,-57.5 9.8,-59.4 -1.3,-2 -23.5,7.9 -26.1,11.7 -2.6,3.9 -23.5,112.4 -39.9,124.8 -16.4,12.4 -2.6,-67.9 -7.9,-70.5 -5.2,-2.6 -29.4,20.9 -29.4,20.9 0,0 4.5,80.4 -0.7,86.3 -5.2,5.9 -13.7,3.9 -17,1.3 -3.3,-2.6 17,-45.8 15.6,-51 -1.3,-5.2 -1.9,-11.8 -5.2,-7.9 -3.2,3.9 2.6,-15.6 -0.6,-17.7 -3.2,-1.9 -10.4,2 -10.4,2 0,0 -24.2,60.1 -29.5,65.3 -5.3,5.2 -37.1,9 -41.1,24 z"
           style="fill:#f82249;fill-opacity:1;stroke:none;stroke-width:3.37777;stroke-miterlimit:4;stroke-dasharray:none;stroke-opacity:1" />
        <path
           id="path1627"
           fill="#1072ba"
           d="m 83.6,420.3 c 1.3,-5.2 5.2,-13.7 8.5,-14.3 3.2,-0.7 -2.6,-21.6 -2.6,-21.6 0,0 54.2,-7.8 58.8,7.9 4.5,15.6 -0.6,15.6 -0.6,17 0,1.4 26.8,32 17.6,104.6 -9.1,72.6 26.8,188.2 20.3,232.6 -6.6,44.4 -10.4,51 -17,75.8 C 162,847.1 151,722.9 143.1,715 c -7.8,-7.8 -11.7,-36.5 -3.9,-38.6 7.9,-1.9 14.4,-19.6 18.4,-22.8 3.9,-3.3 -14.4,-92.8 -15.7,-96.8 0,0 -9.8,24.2 -19.6,9.9 -9.8,-14.4 5.2,-37.9 3.9,-43.2 -1.3,-5.3 -2,-38.6 0.6,-41.8 2.6,-3.3 3.3,-20.9 1.3,-21.6 -1.9,-0.7 -14.3,3.2 -20.9,3.9 -6.6,0.6 -13.7,-17.7 -8.5,-17.7 5.2,0 -5.9,-15.6 -6.6,-19.6 -0.6,-3.8 -8.5,-6.4 -8.5,-6.4 z"
           style="fill:#f82249;fill-opacity:1;stroke:none;stroke-width:3.37777;stroke-miterlimit:4;stroke-dasharray:none;stroke-opacity:1" />
        <path
           id="path1629"
           fill="#1072ba"
           d="m 115.6,773.8 c 3.9,0.4 5.9,71.9 5.9,71.9 0,0 6.6,31.4 10.5,37.2 3.9,5.9 -5.2,18.4 -17.7,19.7 -12.5,1.3 -18.3,-0.7 -18.3,-0.7 -1.3,-0.6 -3.9,34.7 -4.5,36.6 -0.7,1.9 -25.5,-17 -24.9,-41.8 0.7,-24.8 28.8,-124.8 49,-122.9 z"
           style="fill:#f82249;fill-opacity:1;stroke:none;stroke-width:3.37777;stroke-miterlimit:4;stroke-dasharray:none;stroke-opacity:1" />
        <path
           id="path1631"
           fill="#1072ba"
           d="m 510,1206.6 c -2,-2 56.8,-84.7 56.8,-84.7 l 11.8,2.9 2,-18.6 114.6,48.1 -12.7,10.2 7.8,9.4 -17.7,23.5 c 0,0 25.5,25 23.1,39.2 -2.4,14.2 -75,88.7 -81.8,90.2 -6.9,1.5 -44.1,71.1 -44.1,71.1 l -28,-3.9 c 0,0 -14.7,-89.2 -26.4,-99.5 -11.8,-10.3 -9.8,-18.6 -7.3,-28.9 2.4,-10.5 3.4,-57.5 1.9,-59 z"
           style="fill:#f82249;fill-opacity:1;stroke:none;stroke-width:3.37777;stroke-miterlimit:4;stroke-dasharray:none;stroke-opacity:1" />
        <path
           id="path1633"
           fill="#1072ba"
           d="m 402.5,1005.9 c -2.5,2.6 -112.3,260.1 -116.3,271.8 -3.9,11.8 -27.5,112.4 -65.4,173.9 -37.9,61.4 -44.4,94.1 -45.7,116.3 -1.3,22.2 7.9,53.6 6.6,66.7 -1.3,13 -37.9,57.4 -39.2,82.3 -1.3,24.9 3.8,26.1 3.8,26.1 0,0 47,-27.4 65.4,-40.5 18.3,-13.1 100.6,-147.7 107.2,-207.8 6.6,-60.1 35.2,-143.8 39.2,-152.9 3.9,-9.2 43.2,-166 41.9,-181.7 -1.3,-15.7 5.2,-138.6 5.2,-138.6 z"
           style="fill:#f82249;fill-opacity:1;stroke:none;stroke-width:3.37777;stroke-miterlimit:4;stroke-dasharray:none;stroke-opacity:1" />
        <path
           id="path1635"
           fill="#1072ba"
           d="m 145,1760.2 c 0,0 183.8,-123.4 208.4,-199.3 l 14.3,-19.7 c 2.6,-5.2 -42.6,158.3 -64.8,183.2 -22.1,24.9 -32.5,43.2 -36.4,58.9 -3.8,15.6 -31.1,87.6 -41.4,113.8 -10.4,26.1 -19.4,55 -22,70.6 -2.5,15.7 -71.7,56.5 -80.9,44.7 -9.2,-11.7 -5.3,-26.1 -5.3,-26.1 0,0 -19.6,-7.8 -1.4,-30.1 18.3,-22.3 -0.8,-24.7 -0.5,-30.3 0.3,-8.2 -1.2,-121.1 30,-165.7 z"
           style="fill:#f82249;fill-opacity:1;stroke:none;stroke-width:3.37777;stroke-miterlimit:4;stroke-dasharray:none;stroke-opacity:1" />
        <path
           id="path1637"
           fill="#1072ba"
           d="m 417.9,1487.5 c 0,0 -3.9,316.6 -11.7,335.2 -7.9,18.6 -83.4,28.4 -114.7,60.8 -31.4,32.3 -42.1,53 -59.8,66.7 -17.7,13.7 -25.5,31.4 -23.5,26.5 1.9,-4.9 67.6,-174.5 113.6,-234.3 46,-59.8 35.3,-117.7 45.1,-139.2 9.8,-21.7 37.2,-105 51,-115.7 z"
           style="fill:#f82249;fill-opacity:1;stroke:none;stroke-width:3.37777;stroke-miterlimit:4;stroke-dasharray:none;stroke-opacity:1" />
        <path
           id="path1639"
           fill="#1072ba"
           d="m 439.5,1310 c 0,3 -4.9,431.3 -4.9,439.1 0,7.9 121.5,-64.7 131.3,-78.4 9.8,-13.7 -50,-281.3 -55.9,-321.5 -5.9,-40.2 -20.5,-118.6 -26.5,-125.5 -5.9,-6.9 -8.8,55.9 -19.6,58.7 -10.7,3.1 -24.4,27.6 -24.4,27.6 z"
           style="fill:#f82249;fill-opacity:1;stroke:none;stroke-width:3.37777;stroke-miterlimit:4;stroke-dasharray:none;stroke-opacity:1" />
        <path
           id="path1641"
           fill="#1072ba"
           d="m 415,1003.2 c 0,0 71.5,68.6 85.2,152.9 13.7,84.3 0.8,29.2 -1,32.3 -3.1,5.3 -13.7,-32.3 -29.5,-19.6 -15.6,12.7 -22.5,14.7 -22.5,18.6 0,3.9 -2,-85.3 -2,-85.3 z"
           style="fill:#f82249;fill-opacity:1;stroke:none;stroke-width:3.37777;stroke-miterlimit:4;stroke-dasharray:none;stroke-opacity:1" />
        <path
           id="path1643"
           fill="#1072ba"
           d="m 100.3,953.2 c 0,0 71.6,-32.3 79.5,-41.2 7.8,-8.8 -66.7,87.2 -77.5,86.3 -10.8,-1 -20.6,-3.9 -17.7,-7.9 2.9,-4 3.9,-21.6 6.8,-22.6 3,-0.8 8.9,-14.6 8.9,-14.6 z"
           style="fill:#f82249;fill-opacity:1;stroke:none;stroke-width:3.37777;stroke-miterlimit:4;stroke-dasharray:none;stroke-opacity:1" />
        <path
           id="path1645"
           fill="#1072ba"
           d="m 364,983.7 c -1,2.9 -83.4,92.1 -116.7,113.6 -33.3,21.6 -74.5,77.5 -85.2,99 -10.8,21.5 -43.2,72.5 -48.1,87.2 -4.9,14.8 -7.8,31.4 -5.9,44.1 2,12.8 7.1,22.1 10.8,25.5 4.3,3.8 20.3,6.5 25.2,4.5 4.9,-2 13.1,-6.6 13.1,-6.6 0,0 32.3,-170.6 41.2,-172.5 8.7,-2 7.8,28.4 -3,51 -10.8,22.6 -8.8,26.4 -9.8,30.4 -1,3.8 1.9,7.8 1.9,7.8 0,0 128.4,-195 135.2,-211.7 7,-16.5 41.3,-72.3 41.3,-72.3 z"
           style="fill:#f82249;fill-opacity:1;stroke:none;stroke-width:3.37777;stroke-miterlimit:4;stroke-dasharray:none;stroke-opacity:1" />
        <path
           id="path1647"
           fill="#1072ba"
           d="m 305.2,1168.9 c -3,2.9 -174.5,264.6 -176.4,293 -2,28.4 5.9,30.4 10.8,34.4 4.9,3.8 21.6,0 24.5,-2 3,-1.9 14.7,-35.2 14.7,-35.2 z"
           style="fill:#f82249;fill-opacity:1;stroke:none;stroke-width:3.37777;stroke-miterlimit:4;stroke-dasharray:none;stroke-opacity:1" />
        <path
           id="path1649"
           fill="#1072ba"
           d="m 176.8,1075.8 c -3.9,8.7 -57.9,45 -54.9,52.9 3,7.9 4.9,15.6 8.8,15.6 3.9,0 5.9,1 6.9,5 1,3.8 0,4.9 1.9,10.8 1.9,5.9 7.9,19.6 7.9,19.6 z"
           style="fill:#f82249;fill-opacity:1;stroke:none;stroke-width:3.37777;stroke-miterlimit:4;stroke-dasharray:none;stroke-opacity:1" />
        <path
           id="path1651"
           fill="#1072ba"
           d="m 390.1,831 c 2.4,-0.3 17,0.3 13.7,-6.5 -2.8,-5.9 -8,-26.1 -6.6,-36.5 L 498,784.3 c 0,0 -71.9,-14.2 -96.5,-18.9 0,-4.1 -0.3,-8.4 -0.9,-12.2 L 490.7,717 c 0,0 -77.4,12.8 -97.3,15.7 -3.7,-7 -7.5,-12.8 -7.5,-12.8 -1,-0.9 -1.9,-1.7 -2.9,-2.5 l 65.9,-69.1 c 0,0 -67.4,46.9 -83.1,57.4 -8.7,-4.5 -17.4,-7.3 -25.8,-8.5 l 2.4,-91.4 c 0,1.7 -19.1,70.2 -25.1,91.3 -12,1.4 -22.7,5.1 -31.5,8.9 l -63.7,-65.6 44.5,76.2 c -1.7,1.1 -2.6,1.9 -2.6,1.9 -5.5,3.9 -10.2,8 -14.3,12 l -76.5,-1.2 1.3,10.5 59.3,12.8 c -2.2,4.6 -3.8,9.1 -4.8,13.6 l -25.1,3.1 0.2,0.7 c -5.9,-9.8 -11.3,-15.7 -11.3,-15.7 0,0 4.5,25.5 0.6,51.7 -3.9,26.1 -71.2,105.9 -71.2,105.9 0,0 -3.3,7.2 20.2,4.5 23.5,-2.7 64.7,-29.5 76.5,-74.5 5.7,-21.8 -0.3,-42.9 -7.9,-59 l 16.2,2.6 c 1,19.1 9.4,32.9 9.4,32.9 0,-1.3 21.5,-25.5 27.7,-23.9 6.2,1.6 37.9,-14.4 39.6,-12.8 1.6,1.7 14.9,12.4 14.9,12.4 0,0 13.1,6.2 13.1,7.5 0,1.3 0.6,32.7 -1,33 -1.7,0.3 -6.6,1.7 -6.6,1.7 0,0 -2.3,16.3 -4.5,15.6 -2.4,-0.6 -3,3.9 -4.3,5.2 -1.2,1.4 11.5,10.9 11.5,10.9 0,0 4.3,13 0,13.4 -4.3,0.4 -6.9,17.7 -3.9,20.9 3,3.2 8.5,3.2 10.1,3 1.7,-0.3 6.2,3.6 19.6,-2.4 13.4,-5.9 34,-65.3 34,-65.3 0,0 1,-6.2 3.3,-6.6 z m 15,117.7 c 0.3,-1 -11.4,-45.1 -9.8,-46.1 1.7,-1 5.9,-3.9 8.8,-10.8 3,-6.8 -6.2,-21.9 -6.2,-22.5 0,-0.7 -7.2,-27.2 -7.2,-27.2 0,1.7 -28.1,63.4 -28.1,63.4 0,0 1.3,30.1 1.9,33 0.7,3 11.8,1 11.8,2.3 0,1.3 1.3,23.5 1.9,23.5 0.7,0 3.6,3.6 7.5,0.3 3.9,-3.3 22.2,-2 22.2,-2 0,0 -3.1,-13 -2.8,-13.9 z M 121.9,1061 c -12.8,6.9 -10.8,7.9 -8.8,10.8 2,2.9 3.9,8.8 3.9,8.8 0,0 -4.9,-4.9 -7.9,9.8 -2.9,14.7 -3.8,18.6 -1,19.6 3,1 63.7,-35.3 73.5,-59.8 9.8,-24.5 45.1,-121.5 45.1,-121.5 -0.9,4 -92.1,125.5 -104.8,132.3 z M 191.4,944.4 224.7,863 c -1,3.9 -51,62.8 -56.8,92.1 -5.9,29.5 -11.8,35.3 -15.6,42.2 -4,6.9 39.1,-52.9 39.1,-52.9 z m 127.5,11.8 c -3.9,-1 -11.8,-7.9 -20.6,-15.7 -8.8,-7.8 -33.3,-42.1 -33.3,-42.1 -6.8,-17.7 -31.4,-34.3 -25.4,-26.5 5.9,7.9 -4.9,103.9 -6.9,109.8 -1.9,5.9 -42.1,121.6 -39.2,117.7 2.9,-3.9 11.7,-11.8 24.5,-19.7 12.8,-7.8 6.9,-20.5 8.8,-39.2 1.9,-18.6 5.9,-15.6 12.8,-31.4 6.8,-15.6 22.6,-16.6 34.3,-20.5 11.8,-3.9 37.2,-9.8 41.2,-10.8 3.8,-1.1 7.6,-20.6 3.8,-21.6 z"
           style="fill:#f82249;fill-opacity:1;stroke:none;stroke-width:3.37777;stroke-miterlimit:4;stroke-dasharray:none;stroke-opacity:1" />
        <path
           id="path1653"
           fill="#1072ba"
           d="m 75.8,374.9 c 0,0 46.6,-22 81.1,-0.8 34.5,21.2 22,5.2 37.9,-19.6 0,0 -2.4,-13.5 -38.7,-19.6 -36.2,-6.1 -65.1,-0.3 -65.1,-0.3 0,0 -31.4,6.1 -41.4,17.9 -10.1,11.9 26.2,22.4 26.2,22.4 z"
           style="fill:#f82249;fill-opacity:1;stroke:none;stroke-width:3.37777;stroke-miterlimit:4;stroke-dasharray:none;stroke-opacity:1" />
        <path
           id="path1655"
           fill="#1072ba"
           d="m 58.6,338 c 0,0 52.9,-34.4 126,-2.4 73.1,32 1,-20.4 5.6,-22.1 4.7,-1.7 -66.4,-29.1 -133.6,-1.9 0,-0.1 9.7,11.8 2,26.4 z"
           style="fill:#f82249;fill-opacity:1;stroke:none;stroke-width:3.37777;stroke-miterlimit:4;stroke-dasharray:none;stroke-opacity:1" />
        <path
           id="path1657"
           fill="#1072ba"
           d="m 99.2,274.7 c 0,0.1 5.2,2.7 6.6,3.6 11,8.1 44.3,-3.5 44.3,-3.5 0,0 45.3,-25 38.5,-83.8 -6.8,-58.8 0.5,17.9 -19.1,34.3 -1.8,-8.5 -4.4,-15.5 -9.3,-25.3 -2.4,-4.7 -4.4,-8.6 -6.1,-12.1 0.4,-0.6 1,-1.1 1.5,-1.7 8.7,-8.7 52,-46 9.8,-146.3 0,0 6,71 -9.2,83.1 -15.2,12.2 -82.1,40.6 -80.1,97.4 2,56.8 10.9,46.2 23.1,54.3"
           style="fill:#f82249;fill-opacity:1;stroke:none;stroke-width:3.37777;stroke-miterlimit:4;stroke-dasharray:none;stroke-opacity:1" />
        <rect
           id="rect1659"
           x="37.700001"
           y="2188.5"
           fill="#1072ba"
           width="596.90002"
           height="100"
           style="fill:#f82249;fill-opacity:1;stroke:none;stroke-width:3.37777;stroke-miterlimit:4;stroke-dasharray:none;stroke-opacity:1" />
        <rect
           id="rect1661"
           x="8.3000002"
           y="2314.8999"
           fill="#1072ba"
           width="691"
           height="105.9"
           style="fill:#f82249;fill-opacity:1;stroke:none;stroke-width:3.37777;stroke-miterlimit:4;stroke-dasharray:none;stroke-opacity:1" />
        <path
           id="path1663"
           fill="#1072ba"
           d="m 52.4,2462 v 511.6 H 640.5 V 2462 Z m 228.5,182.2 h -78 v -144.1 h 78 z m 113.4,0 h -78.1 v -144.1 h 78.1 z m 122.6,0 h -78.1 v -144.1 h 78.1 z"
           style="fill:#f82249;fill-opacity:1;stroke:none;stroke-width:3.37777;stroke-miterlimit:4;stroke-dasharray:none;stroke-opacity:1" />
      </g>
      <path
         d="m 77.05469,628.23847 q 2.14843,3.13611 2.14843,7.70257 v 13.20402 q 0,5.11684 -2.9785,8.58296 -2.9785,3.41098 -7.56833,3.41098 H 54.78917 q -7.51949,0 -9.71675,-7.26233 -0.68359,-2.31064 -0.73242,-5.06151 h 9.37496 q -0.0976,3.52112 3.12499,3.52112 h 9.71674 q 3.46679,0 3.46679,-3.85123 v -11.33362 q 0,-2.53091 -1.46485,-3.63117 -0.48828,-0.38532 -1.26952,-0.38532 H 53.86145 L 53.81255,623.672 H 67.3867 q 1.41602,0 2.00195,-1.21038 0.63475,-1.21038 0.63475,-2.58593 v -8.58275 q 0,-4.0714 -3.46677,-4.0714 h -9.71675 q -1.46484,0 -2.29492,1.04554 -0.78124,0.99022 -0.83006,2.58572 h -9.37496 q 0.0976,-5.3367 3.12498,-8.7478 3.07616,-3.466 7.81247,-3.466 h 13.86712 q 4.49217,0 7.27535,3.19091 2.7832,3.19103 2.7832,8.25265 v 10.45345 q 0,4.29127 -2.14844,7.70246 z"
         style="font-style:normal;font-variant:normal;font-weight:bold;font-stretch:normal;font-size:70.5556px;line-height:1.25;font-family:Uroob;-inkscape-font-specification:'Uroob Bold';text-align:center;letter-spacing:0px;word-spacing:0px;text-anchor:middle;fill:#f82249;fill-opacity:1;stroke:none;stroke-width:0.264583;stroke-opacity:1"
         id="path1667" />
      <path
         id="path1669"
         style="font-style:normal;font-variant:normal;font-weight:bold;font-stretch:normal;font-size:70.5556px;line-height:1.25;font-family:Uroob;-inkscape-font-specification:'Uroob Bold';text-align:center;letter-spacing:0px;word-spacing:0px;text-anchor:middle;fill:#f82249;fill-opacity:1;stroke:none;stroke-width:0.264583;stroke-opacity:1"
         d="m 95.25295,606.12057 h 1.14718 l 0.66211,-0.97168 2.08753,0.97168 h 5.35859 c 0.68359,-0.0321 1.2858,0.11468 1.80664,0.44029 1.6927,0.97804 2.53905,2.55921 2.53905,4.74374 v 37.85209 0 c 0,0.48896 -0.0326,0.99436 -0.0976,1.51597 -0.19531,1.76056 -0.85801,2.65717 -2.51816,2.68972 h -6.38113 l 0.0133,7.67802 h 8.15351 c 2.92966,0 5.27341,-0.8966 7.03122,-2.68971 1.7578,-1.82586 2.6367,-4.18946 2.6367,-7.09111 v -41.56891 c 0,-3.19501 -1.13932,-5.85217 -3.41795,-7.97139 -2.27864,-2.11932 -5.013,-3.17888 -8.20309,-3.17888 H 92.56522 c 0.17176,2.02027 0.031,3.91483 1.75161,5.58385"
         sodipodi:nodetypes="ccccccscsccccscsssscc" />
    </g>
  </g>
</svg>
