<?xml version="1.0" encoding="UTF-8" standalone="no"?>
<svg
   xmlns:dc="http://purl.org/dc/elements/1.1/"
   xmlns:cc="http://creativecommons.org/ns#"
   xmlns:rdf="http://www.w3.org/1999/02/22-rdf-syntax-ns#"
   xmlns:svg="http://www.w3.org/2000/svg"
   xmlns="http://www.w3.org/2000/svg"
   xmlns:sodipodi="http://sodipodi.sourceforge.net/DTD/sodipodi-0.dtd"
   xmlns:inkscape="http://www.inkscape.org/namespaces/inkscape"
   width="53mm"
   height="15mm"
   viewBox="0 0 53 14.999999"
   version="1.1"
   id="svg1408"
   sodipodi:docname="logo.svg"
   inkscape:version="1.0.1 (1.0.1+r73)"
   inkscape:export-filename="/home/vvo/Desktop/4.png"
   inkscape:export-xdpi="300"
   inkscape:export-ydpi="300">
  <defs
     id="defs1402">
    <inkscape:perspective
       sodipodi:type="inkscape:persp3d"
       inkscape:vp_x="0 : -133.5 : 1"
       inkscape:vp_y="0 : 999.99991 : 0"
       inkscape:vp_z="210.00001 : -133.49999 : 1"
       inkscape:persp3d-origin="105 : -182.99999 : 1"
       id="perspective2017" />
  </defs>
  <sodipodi:namedview
     id="base"
     pagecolor="#ffffff"
     bordercolor="#666666"
     borderopacity="1.0"
     inkscape:pageopacity="0"
     inkscape:pageshadow="2"
     inkscape:zoom="1.9073895"
     inkscape:cx="-27.316312"
     inkscape:cy="34.848136"
     inkscape:document-units="mm"
     inkscape:current-layer="layer1"
     inkscape:document-rotation="0"
     showgrid="true"
     inkscape:pagecheckerboard="true"
     objecttolerance="20"
     guidetolerance="10"
     gridtolerance="10"
     inkscape:window-width="1920"
     inkscape:window-height="970"
     inkscape:window-x="1920"
     inkscape:window-y="27"
     inkscape:window-maximized="1"
     showguides="true"
     inkscape:guide-bbox="true" />
  <metadata
     id="metadata1405">
    <rdf:RDF>
      <cc:Work
         rdf:about="">
        <dc:format>image/svg+xml</dc:format>
        <dc:type
           rdf:resource="http://purl.org/dc/dcmitype/StillImage" />
        <dc:title></dc:title>
      </cc:Work>
    </rdf:RDF>
  </metadata>
  <g
     inkscape:label="Layer 1"
     inkscape:groupmode="layer"
     id="layer1">
    <g
       id="g1211">
      <g
         id="g1140"
         transform="translate(0,-1.0583333)">
        <g
           id="g1719"
           style="fill:#ffffff;fill-opacity:0.9;stroke-width:28.2924"
           transform="matrix(0.18800258,0,0,0.18800258,0.03953973,-2.208065)">
          <path
             style="fill:#ffffff;fill-opacity:0.9;stroke:none;stroke-width:1.40733px;stroke-linecap:butt;stroke-linejoin:miter;stroke-opacity:1"
             d="m 80.930495,41.695413 v 18.908781 l 16.37549,9.45433 v -9.45433 l -8.187757,-4.727287 v -9.454329 z"
             id="path1553" />
          <path
             style="fill:#ffffff;fill-opacity:0.9;stroke:none;stroke-width:1.40733px;stroke-linecap:butt;stroke-linejoin:miter;stroke-opacity:1"
             d="m 115.68262,41.695413 v 18.908781 l 19.6506,11.345196 v -9.45433 l -11.46285,-6.618153 v -9.454329 z"
             id="path1555"
             sodipodi:nodetypes="ccccccc" />
          <path
             style="fill:#ffffff;fill-opacity:0.9;stroke:none;stroke-width:1.40733px;stroke-linecap:butt;stroke-linejoin:miter;stroke-opacity:1"
             d="m 150.43479,41.695413 v 18.908781 l 16.37551,9.45433 v -9.45433 l -8.18775,-4.727287 v -9.454329 z"
             id="path1557" />
          <path
             style="fill:#ffffff;fill-opacity:0.9;stroke:none;stroke-width:1.40733px;stroke-linecap:butt;stroke-linejoin:miter;stroke-opacity:1"
             d="M 195.37584,60.604194 V 41.695413 l 8.18776,4.727165 v 18.908781 z"
             id="path1559" />
          <path
             style="fill:#ffffff;fill-opacity:0.9;stroke:none;stroke-width:1.40733px;stroke-linecap:butt;stroke-linejoin:miter;stroke-opacity:1"
             d="m 230.12804,24.160487 8.18776,4.727286 1e-5,41.170751 -8.18776,-4.727165 z"
             id="path1561"
             sodipodi:nodetypes="ccccc" />
          <path
             style="fill:#ffffff;fill-opacity:0.9;stroke:none;stroke-width:1.40733px;stroke-linecap:butt;stroke-linejoin:miter;stroke-opacity:1"
             d="m 248.50474,41.695413 v 18.908781 l 16.3755,9.454452 v -9.454452 l -8.18774,-4.727165 v -9.454451 z"
             id="path1563" />
        </g>
        <g
           id="g1729"
           style="fill:#ffffff;fill-opacity:0.8;stroke-width:28.2924"
           transform="matrix(0.18800258,0,0,0.18800258,0.03953973,-2.208065)">
          <path
             style="fill:#ffffff;fill-opacity:0.8;stroke:none;stroke-width:1.40733px;stroke-linecap:butt;stroke-linejoin:miter;stroke-opacity:1"
             d="m 80.930489,41.695413 16.37549,-9.454452 16.375491,9.454452 -8.18776,4.727165 -8.187731,-4.727165 -8.187757,4.727165 z"
             id="path1531" />
          <path
             style="fill:#ffffff;fill-opacity:0.8;stroke:none;stroke-width:1.40733px;stroke-linecap:butt;stroke-linejoin:miter;stroke-opacity:1"
             d="m 115.68261,41.695413 16.3755,-9.454452 16.37549,9.454452 -8.18775,4.727165 -8.18774,-4.727165 -8.18775,4.727165 z"
             id="path1535" />
          <path
             style="fill:#ffffff;fill-opacity:0.8;stroke:none;stroke-width:1.40733px;stroke-linecap:butt;stroke-linejoin:miter;stroke-opacity:1"
             d="m 150.43477,41.695413 16.3755,-9.454452 16.37549,9.454452 -8.18776,4.727165 -8.18773,-4.727165 -8.18776,4.727165 z"
             id="path1539" />
          <path
             style="fill:#ffffff;fill-opacity:0.8;stroke:none;stroke-width:1.40733px;stroke-linecap:butt;stroke-linejoin:miter;stroke-opacity:1"
             d="m 195.37583,41.695413 16.37553,-9.454452 16.37552,9.454452 -8.18776,4.727165 -8.18774,-4.727165 -8.18778,4.727165 z"
             id="path1543" />
          <path
             style="fill:#ffffff;fill-opacity:0.8;stroke:none;stroke-width:1.40733px;stroke-linecap:butt;stroke-linejoin:miter;stroke-opacity:1"
             d="m 193.37466,36.968126 -8.18775,-4.727165 v 9.454452 z"
             id="path1547" />
          <path
             style="fill:#ffffff;fill-opacity:0.8;stroke:none;stroke-width:1.40733px;stroke-linecap:butt;stroke-linejoin:miter;stroke-opacity:1"
             d="m 230.12803,24.160487 8.18777,4.727286 8.18774,-4.727286 -8.18774,-4.727165 -8.18776,4.727165"
             id="path1549" />
          <path
             style="fill:#ffffff;fill-opacity:0.8;stroke:none;stroke-width:1.40733px;stroke-linecap:butt;stroke-linejoin:miter;stroke-opacity:1"
             d="m 238.3158,41.695413 8.18774,4.727165 -8.18774,4.727164 z"
             id="path1551" />
          <path
             style="fill:#ffffff;fill-opacity:0.8;stroke:none;stroke-width:1.40733px;stroke-linecap:butt;stroke-linejoin:miter;stroke-opacity:1"
             d="m 248.50472,41.695413 16.37551,-9.454452 16.37548,9.454452 -8.18775,4.727165 -8.18773,-4.727165 -8.18776,4.727165 z"
             id="path1567" />
        </g>
        <path
           style="fill:#ffffff;fill-opacity:0.996078;stroke:none;stroke-width:0.264582px;stroke-linecap:butt;stroke-linejoin:miter;stroke-opacity:1"
           d="m 44.843525,3.2229109 1.539316,0.8887192 V 2.3341689 Z"
           id="path1579" />
        <g
           id="g1711"
           style="fill:#ffffff;fill-opacity:0.996078;stroke-width:28.2924"
           transform="matrix(0.18800258,0,0,0.18800258,0.03953973,-2.208065)">
          <path
             style="fill:#ffffff;fill-opacity:0.996078;stroke:none;stroke-width:1.40733px;stroke-linecap:butt;stroke-linejoin:miter;stroke-opacity:1"
             d="m 97.305985,60.604194 8.187735,-4.727287 v -9.454329 l 8.18775,-4.727165 v 31.814039 l -16.375485,9.454329 v -9.454329 l 8.187735,-4.727287 v -3.450806 l -8.187735,4.727165 z"
             id="path1569"
             sodipodi:nodetypes="ccccccccccc" />
          <path
             style="fill:#ffffff;fill-opacity:0.996078;stroke:none;stroke-width:1.40733px;stroke-linecap:butt;stroke-linejoin:miter;stroke-opacity:1"
             d="m 132.05813,51.149742 v 9.454452 l 16.37549,-9.454452 v -9.454329 l -16.37549,9.454329"
             id="path1571"
             sodipodi:nodetypes="ccccc" />
          <path
             style="fill:#ffffff;fill-opacity:0.996078;stroke:none;stroke-width:1.40733px;stroke-linecap:butt;stroke-linejoin:miter;stroke-opacity:1"
             d="m 174.99804,46.422578 v 9.454329 l -8.18776,4.727287 v 9.45433 l 16.37549,-9.45433 V 41.695413 Z"
             id="path1573" />
          <path
             style="fill:#ffffff;fill-opacity:0.996078;stroke:none;stroke-width:1.40733px;stroke-linecap:butt;stroke-linejoin:miter;stroke-opacity:1"
             d="M 219.93913,65.331359 V 46.422578 l 8.18776,-4.727165 v 18.908781 z"
             id="path1575" />
          <path
             style="fill:#ffffff;fill-opacity:0.996078;stroke:none;stroke-width:1.40733px;stroke-linecap:butt;stroke-linejoin:miter;stroke-opacity:1"
             d="m 185.18692,41.695413 v 18.908781 l 8.18776,4.727165 V 36.968126 Z"
             id="path1577"
             sodipodi:nodetypes="ccccc" />
          <path
             style="fill:#ffffff;fill-opacity:0.996078;stroke:none;stroke-width:1.40733px;stroke-linecap:butt;stroke-linejoin:miter;stroke-opacity:1"
             d="m 273.06798,46.422578 v 9.454451 l -8.18775,4.727165 v 9.454452 l 16.37548,-9.454452 V 41.695413 Z"
             id="path1581" />
        </g>
        <g
           id="g1748"
           style="fill:#ffffff;fill-opacity:0.3;stroke-width:28.2924"
           transform="matrix(0.18800258,0,0,0.18800258,0.03953973,-2.208065)">
          <path
             style="fill:#ffffff;fill-opacity:0.3;stroke:none;stroke-width:1.40733px;stroke-linecap:butt;stroke-linejoin:miter;stroke-opacity:1"
             d="m 89.118228,46.422578 8.187757,-4.727165 8.187755,4.727165 -8.187755,4.727164 z"
             id="path1585" />
          <path
             style="fill:#ffffff;fill-opacity:0.3;stroke:none;stroke-width:1.40733px;stroke-linecap:butt;stroke-linejoin:miter;stroke-opacity:1"
             d="m 123.87037,46.422578 8.18776,-4.727165 8.18775,4.727165 -8.18775,4.727164 z"
             id="path1587" />
          <path
             style="fill:#ffffff;fill-opacity:0.3;stroke:none;stroke-width:1.40733px;stroke-linecap:butt;stroke-linejoin:miter;stroke-opacity:1"
             d="m 158.62252,46.422578 8.18776,-4.727165 8.18776,4.727165 -8.18776,4.727164 z"
             id="path1589" />
          <path
             style="fill:#ffffff;fill-opacity:0.3;stroke:none;stroke-width:1.40733px;stroke-linecap:butt;stroke-linejoin:miter;stroke-opacity:1"
             d="m 256.69247,46.422578 8.18776,-4.727165 8.18775,4.727165 -8.18775,4.727164 z"
             id="path1591" />
        </g>
        <g
           id="g1742"
           style="fill:#ffffff;fill-opacity:0.2;stroke-width:5.31907"
           transform="matrix(0.18800258,0,0,0.18800258,0.03953973,-2.208065)">
          <path
             style="fill:#ffffff;fill-opacity:0.2;stroke:none;stroke-width:1.40733px;stroke-linecap:butt;stroke-linejoin:miter;stroke-opacity:1"
             d="m 89.118222,55.876907 v -9.454329 l 8.187757,4.727164 v 9.454452 z"
             id="path1533" />
          <path
             style="fill:#ffffff;fill-opacity:0.2;stroke:none;stroke-width:1.40733px;stroke-linecap:butt;stroke-linejoin:miter;stroke-opacity:1"
             d="m 123.87036,55.876907 v -9.454329 l 8.18777,4.727164 v 9.454452 z"
             id="path1537" />
          <path
             style="fill:#ffffff;fill-opacity:0.2;stroke:none;stroke-width:1.40733px;stroke-linecap:butt;stroke-linejoin:miter;stroke-opacity:1"
             d="m 158.62251,55.876907 v -9.454329 l 8.18776,4.727164 v 9.454452 z"
             id="path1541" />
          <path
             style="fill:#ffffff;fill-opacity:0.2;stroke:none;stroke-width:1.40733px;stroke-linecap:butt;stroke-linejoin:miter;stroke-opacity:1"
             d="m 211.75136,51.149742 8.18776,4.727287 v -9.454451 l -8.18774,-4.727165 z"
             id="path1545" />
          <path
             style="fill:#ffffff;fill-opacity:0.2;stroke:none;stroke-width:1.40733px;stroke-linecap:butt;stroke-linejoin:miter;stroke-opacity:1"
             d="m 256.69246,55.877029 v -9.454451 l 8.18776,4.727164 v 9.454452 z"
             id="path1595" />
        </g>
        <g
           id="g1735"
           style="fill:#ffffff;fill-opacity:0.1;stroke-width:5.31907"
           transform="matrix(0.18800258,0,0,0.18800258,0.03953973,-2.208065)">
          <path
             style="fill:#ffffff;fill-opacity:0.1;stroke:none;stroke-width:1.40733px;stroke-linecap:butt;stroke-linejoin:miter;stroke-opacity:1"
             d="m 97.305985,60.604194 v -9.454452 l 8.187755,-4.727164 v 9.454329 z"
             id="path1597" />
          <path
             style="fill:#ffffff;fill-opacity:0.1;stroke:none;stroke-width:1.40733px;stroke-linecap:butt;stroke-linejoin:miter;stroke-opacity:1"
             d="m 166.81028,60.604194 v -9.454452 l 8.18776,-4.727164 v 9.454329 z"
             id="path1599" />
          <path
             style="fill:#ffffff;fill-opacity:0.1;stroke:none;stroke-width:1.40733px;stroke-linecap:butt;stroke-linejoin:miter;stroke-opacity:1"
             d="m 203.5636,55.877029 8.18778,-4.727287 v -9.454329 l -8.18778,4.727165 z"
             id="path1601" />
          <path
             style="fill:#ffffff;fill-opacity:0.1;stroke:none;stroke-width:1.40733px;stroke-linecap:butt;stroke-linejoin:miter;stroke-opacity:1"
             d="m 264.88023,60.604194 v -9.454452 l 8.18775,-4.727164 v 9.454451 z"
             id="path1603" />
        </g>
      </g>
      <path
         d="m 6.1978335,7.8972275 q 0.407022,0.5931896 0.407022,1.4569572 v 2.4976403 q 0,0.967836 -0.5642804,1.623467 -0.5642803,0.645224 -1.4338272,0.645224 H 1.9796066 q -1.42457673,0 -1.84084904,-1.373703 Q 0.00925067,12.309726 0,11.789385 h 1.7760956 q -0.018501,0.666037 0.5920319,0.666037 h 1.840849 q 0.6567854,0 0.6567854,-0.728479 V 9.583135 q 0,-0.4787144 -0.277515,-0.6868511 -0.092505,-0.072848 -0.240513,-0.072848 H 1.8038471 l -0.00925,-1.7899758 h 2.5716384 q 0.2682645,0 0.3792704,-0.2289504 Q 4.8657626,6.5755594 4.8657626,6.3153882 V 4.6919217 q 0,-0.7701058 -0.6567853,-0.7701058 H 2.3681282 q -0.2775149,0 -0.4347734,0.1977298 Q 1.7853469,4.3068689 1.7760964,4.6086672 H 7.5135806e-7 Q 0.01850209,3.5992038 0.59203273,2.9539801 1.174814,2.2983491 2.0721123,2.2983491 h 2.6271413 q 0.8510458,0 1.3783242,0.6035968 0.5272784,0.6035966 0.5272784,1.5610255 v 1.9772989 q 0,0.8117332 -0.4070227,1.4569572 z"
         style="font-style:normal;font-variant:normal;font-weight:normal;font-stretch:normal;font-size:100.77px;line-height:1.25;font-family:Uroob;-inkscape-font-specification:Uroob;letter-spacing:0px;word-spacing:0px;fill:#ffffff;fill-opacity:1;stroke-width:0.264584"
         id="path1618" />
      <path
         id="path1620"
         style="font-style:normal;font-variant:normal;font-weight:normal;font-stretch:normal;font-size:100.77px;line-height:1.25;font-family:Uroob;-inkscape-font-specification:Uroob;letter-spacing:0px;word-spacing:0px;fill:#ffffff;fill-opacity:1;stroke-width:0.264583"
         d="M 7.6520622,2.2983782 C 7.6510475,2.4083428 7.636761,2.5191839 7.668806,2.6238726 8.4034254,2.3754762 9.5081144,2.683845 9.315808,3.73226 h 1.979007 c 0.129508,-0.00617 0.243599,0.02159 0.34227,0.08326 0.320684,0.1850102 0.481102,0.4841164 0.481102,0.8973057 v 7.1598863 c 0,0.09251 -0.0062,0.188027 -0.01856,0.286698 -0.037,0.333019 -0.212732,0.502624 -0.52725,0.508791 H 9.9878152 v 1.45234 h 1.9730808 c 0.55503,0 0.999048,-0.169605 1.332066,-0.50879 0.333018,-0.345352 0.499561,-0.792432 0.499561,-1.341295 V 4.4075706 c 0,-0.6043661 -0.215836,-1.1070573 -0.647525,-1.5079125 C 12.713307,2.4988034 12.195206,2.2983782 11.590841,2.2983782 Z"
         sodipodi:nodetypes="cccccssccccscssssc" />
      <g
         id="g1665"
         transform="matrix(0.00481322,0,0,0.00481322,6.7689154,-0.19204753)"
         style="fill:#ffffff;fill-opacity:1;stroke:none;stroke-width:20.7761;stroke-miterlimit:4;stroke-dasharray:none;stroke-opacity:1">
        <polygon
           id="polygon1623"
           fill="#1072ba"
           points="85.6,2152 89.5,2099.1 573.7,2095.1 597.3,2099.1 605.1,2148.1 "
           style="fill:#ffffff;fill-opacity:1;stroke:none;stroke-width:20.7761;stroke-miterlimit:4;stroke-dasharray:none;stroke-opacity:1" />
        <path
           id="path1625"
           fill="#1072ba"
           d="m 126.7,2083.4 443.1,-5.9 -15,-214.3 c 0,0 -6.5,-5.8 -32,15.8 -25.5,21.5 -3,-15.7 -3,-15.7 0,0 -10.1,-45.2 -11.5,-48.4 -1.3,-3.3 -9.1,2.5 -9.1,5.9 0,3.2 0.6,-17 -1.3,-19 -2,-1.9 -8.5,-16.3 -17,5.2 -8.6,21.5 -24.9,213.7 -24.9,213.7 0,0 0.7,39.9 -2.5,42.5 -3.3,2.6 -39.3,-30.7 -39.3,-36.6 0,-5.9 43.1,-202.6 40.6,-209.7 -2.6,-7.2 -51.7,39.9 -65.4,37.9 -13.7,-1.9 3.2,152.9 0.6,154.3 -2.5,1.2 -27.5,24.1 -33.9,27.5 -6.6,3.2 13,-143.8 13,-154.9 0,-11.1 -42.5,54.2 -45.7,74.5 -3.2,20.3 -8.5,5.4 -14.3,-2.6 -3.1,-4.1 11.1,-57.5 9.8,-59.4 -1.3,-2 -23.5,7.9 -26.1,11.7 -2.6,3.9 -23.5,112.4 -39.9,124.8 -16.4,12.4 -2.6,-67.9 -7.9,-70.5 -5.2,-2.6 -29.4,20.9 -29.4,20.9 0,0 4.5,80.4 -0.7,86.3 -5.2,5.9 -13.7,3.9 -17,1.3 -3.3,-2.6 17,-45.8 15.6,-51 -1.3,-5.2 -1.9,-11.8 -5.2,-7.9 -3.2,3.9 2.6,-15.6 -0.6,-17.7 -3.2,-1.9 -10.4,2 -10.4,2 0,0 -24.2,60.1 -29.5,65.3 -5.3,5.2 -37.1,9 -41.1,24 z"
           style="fill:#ffffff;fill-opacity:1;stroke:none;stroke-width:20.7761;stroke-miterlimit:4;stroke-dasharray:none;stroke-opacity:1" />
        <path
           id="path1627"
           fill="#1072ba"
           d="m 83.6,420.3 c 1.3,-5.2 5.2,-13.7 8.5,-14.3 3.2,-0.7 -2.6,-21.6 -2.6,-21.6 0,0 54.2,-7.8 58.8,7.9 4.5,15.6 -0.6,15.6 -0.6,17 0,1.4 26.8,32 17.6,104.6 -9.1,72.6 26.8,188.2 20.3,232.6 -6.6,44.4 -10.4,51 -17,75.8 C 162,847.1 151,722.9 143.1,715 c -7.8,-7.8 -11.7,-36.5 -3.9,-38.6 7.9,-1.9 14.4,-19.6 18.4,-22.8 3.9,-3.3 -14.4,-92.8 -15.7,-96.8 0,0 -9.8,24.2 -19.6,9.9 -9.8,-14.4 5.2,-37.9 3.9,-43.2 -1.3,-5.3 -2,-38.6 0.6,-41.8 2.6,-3.3 3.3,-20.9 1.3,-21.6 -1.9,-0.7 -14.3,3.2 -20.9,3.9 -6.6,0.6 -13.7,-17.7 -8.5,-17.7 5.2,0 -5.9,-15.6 -6.6,-19.6 -0.6,-3.8 -8.5,-6.4 -8.5,-6.4 z"
           style="fill:#ffffff;fill-opacity:1;stroke:none;stroke-width:20.7761;stroke-miterlimit:4;stroke-dasharray:none;stroke-opacity:1" />
        <path
           id="path1629"
           fill="#1072ba"
           d="m 115.6,773.8 c 3.9,0.4 5.9,71.9 5.9,71.9 0,0 6.6,31.4 10.5,37.2 3.9,5.9 -5.2,18.4 -17.7,19.7 -12.5,1.3 -18.3,-0.7 -18.3,-0.7 -1.3,-0.6 -3.9,34.7 -4.5,36.6 -0.7,1.9 -25.5,-17 -24.9,-41.8 0.7,-24.8 28.8,-124.8 49,-122.9 z"
           style="fill:#ffffff;fill-opacity:1;stroke:none;stroke-width:20.7761;stroke-miterlimit:4;stroke-dasharray:none;stroke-opacity:1" />
        <path
           id="path1631"
           fill="#1072ba"
           d="m 510,1206.6 c -2,-2 56.8,-84.7 56.8,-84.7 l 11.8,2.9 2,-18.6 114.6,48.1 -12.7,10.2 7.8,9.4 -17.7,23.5 c 0,0 25.5,25 23.1,39.2 -2.4,14.2 -75,88.7 -81.8,90.2 -6.9,1.5 -44.1,71.1 -44.1,71.1 l -28,-3.9 c 0,0 -14.7,-89.2 -26.4,-99.5 -11.8,-10.3 -9.8,-18.6 -7.3,-28.9 2.4,-10.5 3.4,-57.5 1.9,-59 z"
           style="fill:#ffffff;fill-opacity:1;stroke:none;stroke-width:20.7761;stroke-miterlimit:4;stroke-dasharray:none;stroke-opacity:1" />
        <path
           id="path1633"
           fill="#1072ba"
           d="m 402.5,1005.9 c -2.5,2.6 -112.3,260.1 -116.3,271.8 -3.9,11.8 -27.5,112.4 -65.4,173.9 -37.9,61.4 -44.4,94.1 -45.7,116.3 -1.3,22.2 7.9,53.6 6.6,66.7 -1.3,13 -37.9,57.4 -39.2,82.3 -1.3,24.9 3.8,26.1 3.8,26.1 0,0 47,-27.4 65.4,-40.5 18.3,-13.1 100.6,-147.7 107.2,-207.8 6.6,-60.1 35.2,-143.8 39.2,-152.9 3.9,-9.2 43.2,-166 41.9,-181.7 -1.3,-15.7 5.2,-138.6 5.2,-138.6 z"
           style="fill:#ffffff;fill-opacity:1;stroke:none;stroke-width:20.7761;stroke-miterlimit:4;stroke-dasharray:none;stroke-opacity:1" />
        <path
           id="path1635"
           fill="#1072ba"
           d="m 145,1760.2 c 0,0 183.8,-123.4 208.4,-199.3 l 14.3,-19.7 c 2.6,-5.2 -42.6,158.3 -64.8,183.2 -22.1,24.9 -32.5,43.2 -36.4,58.9 -3.8,15.6 -31.1,87.6 -41.4,113.8 -10.4,26.1 -19.4,55 -22,70.6 -2.5,15.7 -71.7,56.5 -80.9,44.7 -9.2,-11.7 -5.3,-26.1 -5.3,-26.1 0,0 -19.6,-7.8 -1.4,-30.1 18.3,-22.3 -0.8,-24.7 -0.5,-30.3 0.3,-8.2 -1.2,-121.1 30,-165.7 z"
           style="fill:#ffffff;fill-opacity:1;stroke:none;stroke-width:20.7761;stroke-miterlimit:4;stroke-dasharray:none;stroke-opacity:1" />
        <path
           id="path1637"
           fill="#1072ba"
           d="m 417.9,1487.5 c 0,0 -3.9,316.6 -11.7,335.2 -7.9,18.6 -83.4,28.4 -114.7,60.8 -31.4,32.3 -42.1,53 -59.8,66.7 -17.7,13.7 -25.5,31.4 -23.5,26.5 1.9,-4.9 67.6,-174.5 113.6,-234.3 46,-59.8 35.3,-117.7 45.1,-139.2 9.8,-21.7 37.2,-105 51,-115.7 z"
           style="fill:#ffffff;fill-opacity:1;stroke:none;stroke-width:20.7761;stroke-miterlimit:4;stroke-dasharray:none;stroke-opacity:1" />
        <path
           id="path1639"
           fill="#1072ba"
           d="m 439.5,1310 c 0,3 -4.9,431.3 -4.9,439.1 0,7.9 121.5,-64.7 131.3,-78.4 9.8,-13.7 -50,-281.3 -55.9,-321.5 -5.9,-40.2 -20.5,-118.6 -26.5,-125.5 -5.9,-6.9 -8.8,55.9 -19.6,58.7 -10.7,3.1 -24.4,27.6 -24.4,27.6 z"
           style="fill:#ffffff;fill-opacity:1;stroke:none;stroke-width:20.7761;stroke-miterlimit:4;stroke-dasharray:none;stroke-opacity:1" />
        <path
           id="path1641"
           fill="#1072ba"
           d="m 415,1003.2 c 0,0 71.5,68.6 85.2,152.9 13.7,84.3 0.8,29.2 -1,32.3 -3.1,5.3 -13.7,-32.3 -29.5,-19.6 -15.6,12.7 -22.5,14.7 -22.5,18.6 0,3.9 -2,-85.3 -2,-85.3 z"
           style="fill:#ffffff;fill-opacity:1;stroke:none;stroke-width:20.7761;stroke-miterlimit:4;stroke-dasharray:none;stroke-opacity:1" />
        <path
           id="path1643"
           fill="#1072ba"
           d="m 100.3,953.2 c 0,0 71.6,-32.3 79.5,-41.2 7.8,-8.8 -66.7,87.2 -77.5,86.3 -10.8,-1 -20.6,-3.9 -17.7,-7.9 2.9,-4 3.9,-21.6 6.8,-22.6 3,-0.8 8.9,-14.6 8.9,-14.6 z"
           style="fill:#ffffff;fill-opacity:1;stroke:none;stroke-width:20.7761;stroke-miterlimit:4;stroke-dasharray:none;stroke-opacity:1" />
        <path
           id="path1645"
           fill="#1072ba"
           d="m 364,983.7 c -1,2.9 -83.4,92.1 -116.7,113.6 -33.3,21.6 -74.5,77.5 -85.2,99 -10.8,21.5 -43.2,72.5 -48.1,87.2 -4.9,14.8 -7.8,31.4 -5.9,44.1 2,12.8 7.1,22.1 10.8,25.5 4.3,3.8 20.3,6.5 25.2,4.5 4.9,-2 13.1,-6.6 13.1,-6.6 0,0 32.3,-170.6 41.2,-172.5 8.7,-2 7.8,28.4 -3,51 -10.8,22.6 -8.8,26.4 -9.8,30.4 -1,3.8 1.9,7.8 1.9,7.8 0,0 128.4,-195 135.2,-211.7 7,-16.5 41.3,-72.3 41.3,-72.3 z"
           style="fill:#ffffff;fill-opacity:1;stroke:none;stroke-width:20.7761;stroke-miterlimit:4;stroke-dasharray:none;stroke-opacity:1" />
        <path
           id="path1647"
           fill="#1072ba"
           d="m 305.2,1168.9 c -3,2.9 -174.5,264.6 -176.4,293 -2,28.4 5.9,30.4 10.8,34.4 4.9,3.8 21.6,0 24.5,-2 3,-1.9 14.7,-35.2 14.7,-35.2 z"
           style="fill:#ffffff;fill-opacity:1;stroke:none;stroke-width:20.7761;stroke-miterlimit:4;stroke-dasharray:none;stroke-opacity:1" />
        <path
           id="path1649"
           fill="#1072ba"
           d="m 176.8,1075.8 c -3.9,8.7 -57.9,45 -54.9,52.9 3,7.9 4.9,15.6 8.8,15.6 3.9,0 5.9,1 6.9,5 1,3.8 0,4.9 1.9,10.8 1.9,5.9 7.9,19.6 7.9,19.6 z"
           style="fill:#ffffff;fill-opacity:1;stroke:none;stroke-width:20.7761;stroke-miterlimit:4;stroke-dasharray:none;stroke-opacity:1" />
        <path
           id="path1651"
           fill="#1072ba"
           d="m 390.1,831 c 2.4,-0.3 17,0.3 13.7,-6.5 -2.8,-5.9 -8,-26.1 -6.6,-36.5 L 498,784.3 c 0,0 -71.9,-14.2 -96.5,-18.9 0,-4.1 -0.3,-8.4 -0.9,-12.2 L 490.7,717 c 0,0 -77.4,12.8 -97.3,15.7 -3.7,-7 -7.5,-12.8 -7.5,-12.8 -1,-0.9 -1.9,-1.7 -2.9,-2.5 l 65.9,-69.1 c 0,0 -67.4,46.9 -83.1,57.4 -8.7,-4.5 -17.4,-7.3 -25.8,-8.5 l 2.4,-91.4 c 0,1.7 -19.1,70.2 -25.1,91.3 -12,1.4 -22.7,5.1 -31.5,8.9 l -63.7,-65.6 44.5,76.2 c -1.7,1.1 -2.6,1.9 -2.6,1.9 -5.5,3.9 -10.2,8 -14.3,12 l -76.5,-1.2 1.3,10.5 59.3,12.8 c -2.2,4.6 -3.8,9.1 -4.8,13.6 l -25.1,3.1 0.2,0.7 c -5.9,-9.8 -11.3,-15.7 -11.3,-15.7 0,0 4.5,25.5 0.6,51.7 -3.9,26.1 -71.2,105.9 -71.2,105.9 0,0 -3.3,7.2 20.2,4.5 23.5,-2.7 64.7,-29.5 76.5,-74.5 5.7,-21.8 -0.3,-42.9 -7.9,-59 l 16.2,2.6 c 1,19.1 9.4,32.9 9.4,32.9 0,-1.3 21.5,-25.5 27.7,-23.9 6.2,1.6 37.9,-14.4 39.6,-12.8 1.6,1.7 14.9,12.4 14.9,12.4 0,0 13.1,6.2 13.1,7.5 0,1.3 0.6,32.7 -1,33 -1.7,0.3 -6.6,1.7 -6.6,1.7 0,0 -2.3,16.3 -4.5,15.6 -2.4,-0.6 -3,3.9 -4.3,5.2 -1.2,1.4 11.5,10.9 11.5,10.9 0,0 4.3,13 0,13.4 -4.3,0.4 -6.9,17.7 -3.9,20.9 3,3.2 8.5,3.2 10.1,3 1.7,-0.3 6.2,3.6 19.6,-2.4 13.4,-5.9 34,-65.3 34,-65.3 0,0 1,-6.2 3.3,-6.6 z m 15,117.7 c 0.3,-1 -11.4,-45.1 -9.8,-46.1 1.7,-1 5.9,-3.9 8.8,-10.8 3,-6.8 -6.2,-21.9 -6.2,-22.5 0,-0.7 -7.2,-27.2 -7.2,-27.2 0,1.7 -28.1,63.4 -28.1,63.4 0,0 1.3,30.1 1.9,33 0.7,3 11.8,1 11.8,2.3 0,1.3 1.3,23.5 1.9,23.5 0.7,0 3.6,3.6 7.5,0.3 3.9,-3.3 22.2,-2 22.2,-2 0,0 -3.1,-13 -2.8,-13.9 z M 121.9,1061 c -12.8,6.9 -10.8,7.9 -8.8,10.8 2,2.9 3.9,8.8 3.9,8.8 0,0 -4.9,-4.9 -7.9,9.8 -2.9,14.7 -3.8,18.6 -1,19.6 3,1 63.7,-35.3 73.5,-59.8 9.8,-24.5 45.1,-121.5 45.1,-121.5 -0.9,4 -92.1,125.5 -104.8,132.3 z M 191.4,944.4 224.7,863 c -1,3.9 -51,62.8 -56.8,92.1 -5.9,29.5 -11.8,35.3 -15.6,42.2 -4,6.9 39.1,-52.9 39.1,-52.9 z m 127.5,11.8 c -3.9,-1 -11.8,-7.9 -20.6,-15.7 -8.8,-7.8 -33.3,-42.1 -33.3,-42.1 -6.8,-17.7 -31.4,-34.3 -25.4,-26.5 5.9,7.9 -4.9,103.9 -6.9,109.8 -1.9,5.9 -42.1,121.6 -39.2,117.7 2.9,-3.9 11.7,-11.8 24.5,-19.7 12.8,-7.8 6.9,-20.5 8.8,-39.2 1.9,-18.6 5.9,-15.6 12.8,-31.4 6.8,-15.6 22.6,-16.6 34.3,-20.5 11.8,-3.9 37.2,-9.8 41.2,-10.8 3.8,-1.1 7.6,-20.6 3.8,-21.6 z"
           style="fill:#ffffff;fill-opacity:1;stroke:none;stroke-width:20.7761;stroke-miterlimit:4;stroke-dasharray:none;stroke-opacity:1" />
        <path
           id="path1653"
           fill="#1072ba"
           d="m 75.8,374.9 c 0,0 46.6,-22 81.1,-0.8 34.5,21.2 22,5.2 37.9,-19.6 0,0 -2.4,-13.5 -38.7,-19.6 -36.2,-6.1 -65.1,-0.3 -65.1,-0.3 0,0 -31.4,6.1 -41.4,17.9 -10.1,11.9 26.2,22.4 26.2,22.4 z"
           style="fill:#ffffff;fill-opacity:1;stroke:none;stroke-width:20.7761;stroke-miterlimit:4;stroke-dasharray:none;stroke-opacity:1" />
        <path
           id="path1655"
           fill="#1072ba"
           d="m 58.6,338 c 0,0 52.9,-34.4 126,-2.4 73.1,32 1,-20.4 5.6,-22.1 4.7,-1.7 -66.4,-29.1 -133.6,-1.9 0,-0.1 9.7,11.8 2,26.4 z"
           style="fill:#ffffff;fill-opacity:1;stroke:none;stroke-width:20.7761;stroke-miterlimit:4;stroke-dasharray:none;stroke-opacity:1" />
        <path
           id="path1657"
           fill="#1072ba"
           d="m 99.2,274.7 c 0,0.1 5.2,2.7 6.6,3.6 11,8.1 44.3,-3.5 44.3,-3.5 0,0 45.3,-25 38.5,-83.8 -6.8,-58.8 0.5,17.9 -19.1,34.3 -1.8,-8.5 -4.4,-15.5 -9.3,-25.3 -2.4,-4.7 -4.4,-8.6 -6.1,-12.1 0.4,-0.6 1,-1.1 1.5,-1.7 8.7,-8.7 52,-46 9.8,-146.3 0,0 6,71 -9.2,83.1 -15.2,12.2 -82.1,40.6 -80.1,97.4 2,56.8 10.9,46.2 23.1,54.3"
           style="fill:#ffffff;fill-opacity:1;stroke:none;stroke-width:20.7761;stroke-miterlimit:4;stroke-dasharray:none;stroke-opacity:1" />
        <rect
           id="rect1659"
           x="37.700001"
           y="2188.5"
           fill="#1072ba"
           width="596.90002"
           height="100"
           style="fill:#ffffff;fill-opacity:1;stroke:none;stroke-width:20.7761;stroke-miterlimit:4;stroke-dasharray:none;stroke-opacity:1" />
        <rect
           id="rect1661"
           x="8.3000002"
           y="2314.8999"
           fill="#1072ba"
           width="691"
           height="105.9"
           style="fill:#ffffff;fill-opacity:1;stroke:none;stroke-width:20.7761;stroke-miterlimit:4;stroke-dasharray:none;stroke-opacity:1" />
        <path
           id="path1663"
           fill="#1072ba"
           d="m 52.4,2462 v 511.6 H 640.5 V 2462 Z m 228.5,182.2 h -78 v -144.1 h 78 z m 113.4,0 h -78.1 v -144.1 h 78.1 z m 122.6,0 h -78.1 v -144.1 h 78.1 z"
           style="fill:#ffffff;fill-opacity:1;stroke:none;stroke-width:20.7761;stroke-miterlimit:4;stroke-dasharray:none;stroke-opacity:1" />
      </g>
      <path
         style="fill:none;stroke:#fffefe;stroke-width:0.500002;stroke-linecap:butt;stroke-linejoin:miter;stroke-miterlimit:4;stroke-dasharray:none;stroke-opacity:1"
         d="M 25.440032,14.040474 H 42.730987"
         id="path1034" />
      <path
         style="fill:none;stroke:#fffefe;stroke-width:0.2;stroke-linecap:butt;stroke-linejoin:miter;stroke-miterlimit:4;stroke-dasharray:none;stroke-opacity:1"
         d="M 25.440032,12.852392 H 42.730987"
         id="path1142" />
    </g>
  </g>
</svg>
